<svg xmlns="http://www.w3.org/2000/svg" xmlns:xlink="http://www.w3.org/1999/xlink" fill="none" height="122" width="243"><linearGradient id="a"><stop offset="0" stop-color="#bab4cb60" stop-opacity=".7"/><stop offset=".3" stop-color="#bab4cb10" stop-opacity=".5"/><stop offset=".4" stop-color="#bab4cb10" stop-opacity=".1"/></linearGradient><linearGradient id="b" gradientUnits="userSpaceOnUse" x1="125.807" x2="125.807" xlink:href="#a" y1="106.421" y2="159.066"/><linearGradient id="c" gradientUnits="userSpaceOnUse" x1="125.809" x2="125.809" xlink:href="#a" y1="105.041" y2="160.353"/><linearGradient id="d" gradientUnits="userSpaceOnUse" x1="125.74" x2="125.74" xlink:href="#a" y1="103.612" y2="161.825"/><linearGradient id="e" gradientUnits="userSpaceOnUse" x1="125.601" x2="125.601" xlink:href="#a" y1="102.141" y2="163.486"/><linearGradient id="f" gradientUnits="userSpaceOnUse" x1="125.394" x2="125.394" xlink:href="#a" y1="100.623" y2="165.33"/><linearGradient id="g" gradientUnits="userSpaceOnUse" x1="125.117" x2="125.117" xlink:href="#a" y1="99.067" y2="167.341"/><linearGradient id="h" gradientUnits="userSpaceOnUse" x1="124.778" x2="124.778" xlink:href="#a" y1="97.475" y2="169.5"/><linearGradient id="i" gradientUnits="userSpaceOnUse" x1="124.379" x2="124.379" xlink:href="#a" y1="95.848" y2="171.792"/><linearGradient id="j" gradientUnits="userSpaceOnUse" x1="123.936" x2="123.936" xlink:href="#a" y1="94.19" y2="174.195"/><linearGradient id="k" gradientUnits="userSpaceOnUse" x1="123.447" x2="123.447" xlink:href="#a" y1="92.508" y2="176.68"/><linearGradient id="l" gradientUnits="userSpaceOnUse" x1="122.916" x2="122.916" xlink:href="#a" y1="90.804" y2="179.233"/><linearGradient id="m" gradientUnits="userSpaceOnUse" x1="122.335" x2="122.335" xlink:href="#a" y1="89.084" y2="181.847"/><linearGradient id="n" gradientUnits="userSpaceOnUse" x1="121.71" x2="121.71" xlink:href="#a" y1="87.353" y2="184.522"/><linearGradient id="o" gradientUnits="userSpaceOnUse" x1="121.04" x2="121.04" xlink:href="#a" y1="85.617" y2="187.249"/><linearGradient id="p" gradientUnits="userSpaceOnUse" x1="120.315" x2="120.315" xlink:href="#a" y1="83.881" y2="190.026"/><linearGradient id="q" gradientUnits="userSpaceOnUse" x1="119.535" x2="119.535" xlink:href="#a" y1="82.152" y2="192.848"/><linearGradient id="r" gradientUnits="userSpaceOnUse" x1="118.704" x2="118.704" xlink:href="#a" y1="80.436" y2="195.704"/><linearGradient id="s" gradientUnits="userSpaceOnUse" x1="117.829" x2="117.829" xlink:href="#a" y1="78.74" y2="198.591"/><linearGradient id="t" gradientUnits="userSpaceOnUse" x1="116.952" x2="116.952" xlink:href="#a" y1="77.07" y2="201.499"/><linearGradient id="u" gradientUnits="userSpaceOnUse" x1="116.112" x2="116.112" xlink:href="#a" y1="75.436" y2="204.424"/><linearGradient id="v" gradientUnits="userSpaceOnUse" x1="115.365" x2="115.365" xlink:href="#a" y1="73.829" y2="207.357"/><linearGradient id="w" gradientUnits="userSpaceOnUse" x1="114.77" x2="114.77" xlink:href="#a" y1="72.214" y2="210.288"/><linearGradient id="x" gradientUnits="userSpaceOnUse" x1="114.372" x2="114.372" xlink:href="#a" y1="70.567" y2="213.21"/><linearGradient id="y" gradientUnits="userSpaceOnUse" x1="114.186" x2="114.186" xlink:href="#a" y1="68.861" y2="216.113"/><linearGradient id="z" gradientUnits="userSpaceOnUse" x1="114.194" x2="114.194" xlink:href="#a" y1="67.059" y2="218.989"/><linearGradient id="A" gradientUnits="userSpaceOnUse" x1="114.365" x2="114.365" xlink:href="#a" y1="65.115" y2="221.827"/><linearGradient id="B" gradientUnits="userSpaceOnUse" x1="114.668" x2="114.668" xlink:href="#a" y1="62.982" y2="224.617"/><linearGradient id="C" gradientUnits="userSpaceOnUse" x1="115.035" x2="115.035" xlink:href="#a" y1="60.613" y2="227.349"/><linearGradient id="D" gradientUnits="userSpaceOnUse" x1="115.454" x2="115.454" xlink:href="#a" y1="57.968" y2="230.013"/><linearGradient id="E" gradientUnits="userSpaceOnUse" x1="115.932" x2="115.932" xlink:href="#a" y1="55.023" y2="232.599"/><linearGradient id="F" gradientUnits="userSpaceOnUse" x1="116.465" x2="116.465" xlink:href="#a" y1="51.774" y2="235.096"/><linearGradient id="G" gradientUnits="userSpaceOnUse" x1="117.061" x2="117.061" xlink:href="#a" y1="48.227" y2="237.492"/><linearGradient id="H" gradientUnits="userSpaceOnUse" x1="117.723" x2="117.723" xlink:href="#a" y1="44.409" y2="239.779"/><linearGradient id="I" gradientUnits="userSpaceOnUse" x1="118.459" x2="118.459" xlink:href="#a" y1="40.343" y2="241.946"/><linearGradient id="J" gradientUnits="userSpaceOnUse" x1="119.254" x2="119.254" xlink:href="#a" y1="36.059" y2="243.982"/><linearGradient id="K" gradientUnits="userSpaceOnUse" x1="120.037" x2="120.037" xlink:href="#a" y1="31.651" y2="245.878"/><linearGradient id="L" gradientUnits="userSpaceOnUse" x1="120.743" x2="120.743" xlink:href="#a" y1="27.154" y2="247.626"/><linearGradient id="M" gradientUnits="userSpaceOnUse" x1="121.322" x2="121.322" xlink:href="#a" y1="22.566" y2="249.214"/><linearGradient id="N" gradientUnits="userSpaceOnUse" x1="121.699" x2="121.699" xlink:href="#a" y1="17.889" y2="250.637"/><linearGradient id="O" gradientUnits="userSpaceOnUse" x1="121.82" x2="121.82" xlink:href="#a" y1="13.116" y2="251.889"/><linearGradient id="P" gradientUnits="userSpaceOnUse" x1="121.652" x2="121.652" xlink:href="#a" y1="8.246" y2="252.961"/><g stroke-miterlimit="10"><path d="m98.475 111.546c2.809-6.264 12.809-6.871 22.221-1.35s22.671 16.858 29.464 25.193 6.858 17.656.145 20.714-20.048 3.886-29.634 1.84-19.65-10.76-22.366-19.365-2.64-20.769.17-27.032z" stroke="url(#b)" stroke-width=".108"/><path d="m98.377 109.802c3.273-6.266 13.811-6.359 23.418-.207s22.957 18.463 29.667 27.358 6.3 18.444-.91 21.221-21.264 2.919-31.231.317-20.096-12.059-22.508-21.014c-2.413-8.956-1.709-21.409 1.564-27.675z" stroke="url(#c)" stroke-width=".113"/><path d="m98.36 108.01c3.761-6.244 14.838-5.782 24.617 1.027 9.779 6.808 23.175 20.122 29.769 29.586s5.674 19.221-2.044 21.684-22.492 1.865-32.831-1.327-20.497-13.412-22.572-22.71-.698-22.016 3.062-28.26z" stroke="url(#d)" stroke-width=".117"/><path d="m98.435 106.175c4.271-6.195 15.886-5.136 25.812 2.353 9.926 7.49 23.319 21.832 29.762 31.873 6.443 10.04 4.977 19.985-3.259 22.098s-23.729.72-34.429-3.096-20.85-14.819-22.553-24.451.397-22.582 4.667-28.777z" stroke="url(#e)" stroke-width=".121"/><path d="m98.608 104.298c4.805-6.119 16.955-4.42 27 3.775s23.382 23.591 29.638 34.215c6.255 10.623 4.205 20.729-4.557 22.458s-24.969-.517-36.016-4.991-21.147-16.278-22.443-26.233c-1.297-9.954 1.573-23.105 6.378-29.224z" stroke="url(#f)" stroke-width=".126"/><path d="m98.885 102.387c5.362-6.012 18.042-3.63 28.176 5.294s23.359 25.396 29.387 36.606 3.355 21.451-5.939 22.758-26.209-1.85-37.587-7.016-21.385-17.789-22.237-28.051c-.852-10.264 2.838-23.579 8.2-29.591z" stroke="url(#g)" stroke-width=".131"/><path d="m99.275 100.445c5.942-5.873 19.143-2.763 29.334 6.911s23.242 27.243 29.001 39.042 2.426 22.145-7.407 22.992-27.444-3.281-39.134-9.173-21.558-19.348-21.927-29.903 4.191-23.996 10.133-29.869z" stroke="url(#h)" stroke-width=".136"/><path d="m99.785 98.476c6.545-5.7 20.255-1.817 30.468 8.629 10.212 10.446 23.024 29.129 28.471 41.516s1.414 22.806-8.962 23.154c-10.375.347-28.667-4.811-40.649-11.463-11.98-6.652-21.659-20.954-21.506-31.783s5.633-24.353 12.178-30.053z" stroke="url(#i)" stroke-width=".141"/><path d="m100.425 96.487c7.169-5.492 21.376-.79 31.571 10.448s22.699 31.048 27.787 44.021c5.088 12.974.317 23.43-10.603 23.237-10.919-.193-29.875-6.443-42.123-13.889s-21.684-22.604-20.968-33.685 7.167-24.641 14.336-30.132z" stroke="url(#j)" stroke-width=".147"/><path d="m101.196 94.483c7.814-5.245 22.501.322 32.636 12.37s22.259 32.996 26.939 46.551c4.681 13.555-.868 24.012-12.332 23.236-11.463-.775-31.06-8.178-43.547-16.451s-21.625-24.295-20.304-35.606c1.32-11.311 8.793-24.856 16.608-30.1z" stroke="url(#k)" stroke-width=".152"/><path d="m102.108 92.471c8.479-4.958 23.625 1.52 33.658 14.394 10.033 12.875 21.696 34.968 25.92 49.097 4.223 14.129-2.143 24.544-14.149 23.144-12.005-1.4-32.216-10.018-44.913-19.151s-21.476-26.024-19.509-37.537 10.514-24.99 18.993-29.947z" stroke="url(#l)" stroke-width=".158"/><path d="m103.168 90.46c9.164-4.629 24.746 2.805 34.627 16.52s21.004 36.957 24.717 51.65-3.51 25.022-16.053 22.953c-12.542-2.069-33.336-11.963-46.209-21.987s-21.23-27.787-18.574-39.473 12.33-25.034 21.492-29.663z" stroke="url(#m)" stroke-width=".164"/><path d="m104.387 88.457c9.866-4.256 25.857 4.182 35.536 18.749s20.175 38.958 23.323 54.202c3.148 15.243-4.971 25.439-18.043 22.657s-34.414-14.014-47.426-24.96-20.884-29.579-17.493-41.406c3.391-11.828 14.238-24.987 24.103-29.242z" stroke="url(#n)" stroke-width=".171"/><path d="m105.773 86.47c10.584-3.837 26.954 5.65 36.378 21.079 9.424 15.43 19.201 40.964 21.728 56.74s-6.527 25.788-20.12 22.248-35.441-16.172-48.552-28.07-20.427-31.394-16.258-43.327 16.24-24.835 26.824-28.67z" stroke="url(#o)" stroke-width=".177"/><path d="m107.328 84.506c11.318-3.369 28.032 7.212 37.142 23.512 9.111 16.3 18.076 42.966 19.922 59.256s-8.181 26.064-22.282 21.72c-14.101-4.345-36.41-18.436-49.575-31.313s-19.853-33.232-14.86-45.232 18.336-24.574 29.653-27.943z" stroke="url(#p)" stroke-width=".184"/><path d="m109.06 82.58c12.064-2.851 29.084 8.868 37.821 26.043s16.789 44.956 17.894 61.737-9.931 26.259-24.524 21.065c-14.593-5.195-37.311-20.805-50.485-34.689-13.173-13.884-19.157-35.082-13.296-47.107 5.86-12.026 20.526-24.198 32.59-27.05z" stroke="url(#q)" stroke-width=".191"/><path d="m110.982 80.698c12.823-2.282 30.104 10.62 38.404 28.67 8.3 18.051 15.337 46.927 15.637 64.17.301 17.243-11.781 26.367-26.848 20.275s-38.137-23.279-51.267-38.195c-13.13-14.915-18.33-36.941-11.556-48.945s22.808-23.693 35.63-25.975z" stroke="url(#r)" stroke-width=".199"/><path d="m113.101 78.873c13.59-1.66 31.087 12.467 38.882 31.392 7.795 18.924 13.709 48.868 13.141 66.543-.568 17.674-13.73 26.379-29.249 19.343s-38.878-25.857-51.91-41.826-17.366-38.8-9.633-50.735 25.178-23.058 38.768-24.717z" stroke="url(#s)" stroke-width=".206"/><path d="m115.419 77.115c14.364-.98 32.025 14.412 39.245 34.204s11.899 50.77 10.396 68.84-15.779 26.288-31.724 18.262c-15.946-8.026-39.525-28.536-52.398-45.579s-16.258-40.653-7.521-52.466 27.638-22.281 42.002-23.261z" stroke="url(#t)" stroke-width=".214"/><path d="m117.941 75.438c15.143-.244 32.91 16.452 39.483 37.103 6.572 20.651 9.9 52.622 7.395 71.048-2.505 18.425-17.927 26.086-34.27 17.024s-40.067-31.314-52.72-49.448-14.999-42.491-5.213-54.128 30.182-21.355 45.325-21.599z" stroke="url(#u)" stroke-width=".223"/><path d="m120.678 73.853c15.924.551 33.736 18.59 39.583 40.085 5.847 21.496 7.705 54.413 4.128 73.15s-20.173 25.767-36.881 15.622c-16.707-10.145-40.494-34.187-52.859-53.427s-13.581-44.308-2.703-55.707 32.809-20.274 48.732-19.723z" stroke="url(#v)" stroke-width=".231"/><path d="m123.636 72.375c16.703 1.406 34.494 20.821 39.536 43.144s5.306 56.131.587 75.13-22.517 25.32-39.552 14.048c-17.035-11.273-40.795-37.152-52.8-57.509s-12-46.094.015-57.192 35.511-19.027 52.214-17.62z" stroke="url(#w)" stroke-width=".24"/><path d="m126.821 71.019c17.478 2.323 35.177 23.147 39.33 46.274s2.698 57.764-3.234 76.971-24.957 24.739-42.278 12.294-40.96-40.204-52.531-61.686-10.244-47.838 2.948-58.568 38.287-17.608 55.765-15.285z" stroke="url(#x)" stroke-width=".249"/><path d="m130.237 69.798c18.246 3.304 35.774 25.564 38.953 49.468 3.178 23.904-.127 59.298-7.344 78.654-7.218 19.356-27.491 24.015-45.053 10.354-17.56-13.661-40.976-43.338-52.033-65.95s-8.312-49.532 6.1-59.823 41.132-16.006 59.377-12.703z" stroke="url(#y)" stroke-width=".259"/><path d="m133.889 68.729c19.002 4.348 36.278 28.072 38.392 52.72s-3.173 60.719-11.749 80.159-30.117 23.14-47.869 8.221-40.833-46.549-51.292-70.29-6.194-51.165 9.476-60.941 44.041-14.218 63.042-9.87z" stroke="url(#z)" stroke-width=".269"/><path d="m137.779 67.826c19.742 5.458 36.679 30.667 37.637 56.02s-6.446 62.014-16.454 81.469c-10.007 19.455-32.831 22.104-50.718 5.888s-40.518-49.83-50.29-74.696-3.885-52.725 13.082-61.908 47.001-12.231 66.743-6.773z" stroke="url(#A)" stroke-width=".279"/><path d="m141.915 67.108c20.464 6.634 36.968 33.345 36.675 59.36s-9.952 63.167-21.464 82.561-35.629 20.9-53.592 3.347-40.02-53.173-49.012-79.155-1.38-54.2 16.918-62.707 50.011-10.04 70.475-3.406z" stroke="url(#B)" stroke-width=".29"/><path d="m146.295 66.591c21.162 7.876 37.133 36.103 35.492 62.729-1.642 26.625-13.695 64.162-26.785 83.414s-38.507 19.519-56.482.593-39.323-56.57-47.44-83.653 1.328-55.578 20.99-63.322 53.063-7.637 74.225.239z" stroke="url(#C)" stroke-width=".301"/><path d="m150.924 66.293c21.832 9.184 37.166 38.937 34.076 66.117s-17.679 64.983-32.42 84.006c-14.741 19.024-41.461 17.953-59.378-2.379s-38.418-60.012-45.558-88.177 4.245-56.846 25.3-63.737 56.149-5.014 77.98 4.17z" stroke="url(#D)" stroke-width=".313"/><path d="m155.807 66.233c22.468 10.56 37.055 41.84 32.416 69.511-4.64 27.671-21.906 65.613-38.371 84.315s-44.484 16.193-62.267-5.577-37.29-63.489-43.35-92.71c-6.058-29.221 7.375-57.991 29.853-63.934s59.25-2.165 81.719 8.395z" stroke="url(#E)" stroke-width=".325"/><path d="m160.937 66.43c23.066 12.003 36.79 44.808 30.496 72.9-6.293 28.092-26.381 66.034-44.639 84.316s-47.57 14.23-65.14-9.004-35.927-66.99-40.795-97.235 10.721-58.998 34.643-63.895 62.369.915 85.435 12.918z" stroke="url(#F)" stroke-width=".338"/><path d="m166.316 66.902c23.621 13.512 36.359 47.832 28.306 76.268s-31.104 66.23-51.225 83.986-50.713 12.057-67.982-12.666-34.315-70.504-37.88-101.735c-3.565-31.23 14.29-59.852 39.676-63.602 25.387-3.75 65.484 4.238 89.105 17.75z" stroke="url(#G)" stroke-width=".351"/><path d="m171.945 67.67c24.127 15.087 35.751 50.908 25.832 79.603s-36.077 66.18-58.129 83.3-53.903 9.665-70.781-16.567-32.441-74.016-34.586-106.188 18.082-60.538 44.949-63.035c26.866-2.498 68.588 7.8 92.715 22.888z" stroke="url(#H)" stroke-width=".364"/><path d="m177.821 68.756c24.577 16.726 34.955 54.024 23.062 82.885s-41.299 65.866-65.347 82.232-57.133 7.047-73.522-20.709-30.292-77.515-30.897-110.575 22.102-61.039 50.46-62.176 71.667 11.617 96.244 28.343z" stroke="url(#I)" stroke-width=".378"/><path d="m183.94 70.177c24.966 18.428 33.958 57.174 19.983 86.101-13.976 28.927-46.77 65.268-72.877 80.757s-60.392 4.196-76.19-25.096-27.854-80.984-26.795-114.872c1.06-33.888 26.352-61.34 56.206-61.005 29.855.335 74.707 15.687 99.673 34.115z" stroke="url(#J)" stroke-width=".393"/><path d="m190.297 71.957c25.288 20.192 32.75 60.347 16.583 89.232s-52.488 64.366-80.713 78.847-63.67 1.103-78.767-29.73-25.118-84.407-22.267-119.055 30.833-61.424 62.185-59.502 77.691 20.016 102.979 40.208z" stroke="url(#K)" stroke-width=".408"/><path d="m196.881 74.115c25.535 22.016 31.318 63.532 12.85 92.258s-58.45 63.141-88.849 76.478c-30.4 13.337-66.956-2.238-81.238-34.611s-22.065-87.769-17.294-123.101c4.77-35.332 35.546-61.273 68.389-57.646s80.606 24.606 106.142 46.622z" stroke="url(#L)" stroke-width=".424"/><path d="m203.693 76.673c25.702 23.897 29.649 66.719 8.772 95.159s-64.651 61.57-97.276 73.621-70.238-5.833-83.585-39.741-18.684-91.049-11.859-126.98c6.825-35.93 40.49-60.869 74.813-55.418s83.433 29.462 109.135 53.36z" stroke="url(#M)" stroke-width=".44"/><path d="m210.716 79.654c25.78 25.833 27.733 69.894 4.339 97.916s-71.087 59.634-105.984 70.249-73.5-9.688-85.787-45.119-14.964-94.23-5.95-130.666c9.011-36.434 45.662-60.193 81.446-52.796s86.155 34.584 111.935 60.416z" stroke="url(#N)" stroke-width=".457"/><path d="m217.944 83.078c25.764 27.817 25.557 73.044-.46 100.503s-77.749 57.311-114.961 66.336-76.733-13.809-87.825-50.743-10.893-97.291.444-134.127c11.338-36.836 51.066-59.227 88.286-49.76 37.22 9.468 88.752 39.974 114.516 67.791z" stroke="url(#O)" stroke-width=".475"/><path d="m225.364 86.967c25.645 29.85 23.109 76.154-5.636 102.899s-84.631 54.579-124.192 61.854-79.917-18.199-89.678-56.609c-9.761-38.41-6.458-100.21 7.342-137.334s56.693-57.954 95.315-46.29 91.204 45.63 116.849 75.48z" stroke="url(#P)" stroke-width=".493"/></g><div xmlns="" id="divScriptsUsed" style="display: none"/><script xmlns="" id="globalVarsDetection" src="chrome-extension://cmkdbmfndkfgebldhnkbfhlneefdaaip/js/wrs_env.js"/></svg>